<?xml version="1.0" encoding="UTF-8" standalone="no"?>
<!-- Created with Inkscape (http://www.inkscape.org/) -->

<svg
   width="38.086082mm"
   height="38.086079mm"
   viewBox="0 0 38.086082 38.086079"
   version="1.1"
   id="svg1"
   xml:space="preserve"
   xmlns="http://www.w3.org/2000/svg"
   xmlns:svg="http://www.w3.org/2000/svg"><defs
     id="defs1" /><g
     id="layer1"
     transform="translate(-255.47047,-122.85086)"><g
       id="g126"><path
         id="path124"
         style="fill:#9ae600;fill-opacity:1;stroke-width:0.423335;stroke-linecap:round;stroke-linejoin:round;stroke-miterlimit:0;paint-order:markers stroke fill"
         d="m 274.51347,122.85087 a 19.043043,19.043043 0 0 0 -19.04301,19.04301 19.043043,19.043043 0 0 0 19.04301,19.04306 19.043043,19.043043 0 0 0 19.04307,-19.04306 19.043043,19.043043 0 0 0 -19.04307,-19.04301 z m 0,4.01163 a 15.03139,15.03139 0 0 1 15.03139,15.03138 15.03139,15.03139 0 0 1 -15.03139,15.03139 15.03139,15.03139 0 0 1 -15.03138,-15.03139 15.03139,15.03139 0 0 1 15.03138,-15.03138 z" /><path
         id="path125"
         style="fill:#9ae600;fill-opacity:1;stroke-width:0.423335;stroke-linecap:round;stroke-linejoin:round;stroke-miterlimit:0;paint-order:markers stroke fill"
         d="m 274.51347,122.85087 a 19.043043,19.043043 0 0 0 -19.04301,19.04301 19.043043,19.043043 0 0 0 19.04301,19.04306 19.043043,19.043043 0 0 0 19.04307,-19.04306 19.043043,19.043043 0 0 0 -19.04307,-19.04301 z m 0,4.01163 a 15.03139,15.03139 0 0 1 15.03139,15.03138 15.03139,15.03139 0 0 1 -15.03139,15.03139 15.03139,15.03139 0 0 1 -15.03138,-15.03139 15.03139,15.03139 0 0 1 15.03138,-15.03138 z" /><path
         id="path126"
         style="fill:#9ae600;fill-opacity:1;stroke-width:0.423335;stroke-linecap:round;stroke-linejoin:round;stroke-miterlimit:0;paint-order:markers stroke fill"
         d="m 274.51354,130.87529 a 11.018597,11.018597 0 0 0 -11.01867,11.01858 11.018597,11.018597 0 0 0 11.01867,11.01866 11.018597,11.018597 0 0 0 11.01858,-11.01866 11.018597,11.018597 0 0 0 -11.01858,-11.01858 z m 0,4.01285 a 7.00579,7.00579 0 0 1 7.00572,7.00573 7.00579,7.00579 0 0 1 -7.00572,7.0058 7.00579,7.00579 0 0 1 -7.00581,-7.0058 7.00579,7.00579 0 0 1 7.00581,-7.00573 z" /><circle
         style="fill:#9ae600;fill-opacity:1;stroke-width:0.423335;stroke-linecap:round;stroke-linejoin:round;stroke-miterlimit:0;paint-order:markers stroke fill"
         id="circle126"
         cx="274.51346"
         cy="141.89391"
         r="3.0075397" /></g></g></svg>
